<svg width="307" height="86" viewBox="0 0 307 86" fill="none" xmlns="http://www.w3.org/2000/svg">
<rect x="70" y="20" width="46" height="46" rx="23" fill="#FD853A"/>
<path d="M105.194 46.5953C104.102 47.7882 102.76 48.526 101.137 48.5885C98.0722 48.7063 95.6997 46.9061 95.4059 44.6538C94.8212 40.1703 97.7404 37.4112 100.937 37.4112C102.564 37.4112 103.775 38.0328 104.85 39.0293L107.655 35.8705C106.133 34.3661 103.792 33 100.937 33C98.1735 33 95.6862 33.914 93.8 35.6215V33.4076H79.9V37.6873H88.6941V44.4952C88.6941 47.5861 87.517 48.5885 85.2262 48.5885C83.7383 48.5885 82.2159 47.7186 80.9276 46.1089L78 49.2749C79.9631 52.0211 82.8978 53 85.3954 53C89.2608 53 91.5638 51.5884 92.7551 49.4611C94.6941 51.801 97.5364 53 100.611 53C103.642 53 106.162 51.8625 108 49.6852L105.194 46.5953Z" fill="white"/>
<path d="M135.38 26.34H136.962V36H135.688V28.286L132.412 33.97H131.698L128.422 28.286V36H127.134V26.34H128.758L132.062 32.08L135.38 26.34ZM144.82 28.86H146.024V36H144.82V34.712C144.218 35.608 143.238 36.168 142.048 36.168C140.004 36.168 138.478 34.558 138.478 32.43C138.478 30.302 140.004 28.692 142.048 28.692C143.238 28.692 144.218 29.252 144.82 30.148V28.86ZM142.272 35.006C143.728 35.006 144.82 33.9 144.82 32.43C144.82 30.96 143.728 29.854 142.272 29.854C140.802 29.854 139.71 30.96 139.71 32.43C139.71 33.9 140.802 35.006 142.272 35.006ZM153.77 25.92H154.974V36H153.77V34.712C153.168 35.608 152.188 36.168 150.998 36.168C148.954 36.168 147.428 34.558 147.428 32.43C147.428 30.302 148.954 28.692 150.998 28.692C152.188 28.692 153.168 29.252 153.77 30.148V25.92ZM151.222 35.006C152.678 35.006 153.77 33.9 153.77 32.43C153.77 30.96 152.678 29.854 151.222 29.854C149.752 29.854 148.66 30.96 148.66 32.43C148.66 33.9 149.752 35.006 151.222 35.006ZM163.826 32.43C163.826 32.598 163.812 32.794 163.798 32.962H157.652C157.89 34.208 158.912 35.062 160.298 35.062C161.348 35.062 162.244 34.558 162.706 33.9L163.532 34.614C162.818 35.566 161.642 36.168 160.256 36.168C158.016 36.168 156.35 34.544 156.35 32.402C156.35 30.288 157.96 28.692 160.102 28.692C162.23 28.692 163.826 30.288 163.826 32.43ZM160.088 29.798C158.842 29.798 157.862 30.652 157.638 31.87H162.552C162.328 30.638 161.348 29.798 160.088 29.798ZM172.386 28.692C174.43 28.692 175.97 30.302 175.97 32.43C175.97 34.558 174.43 36.168 172.386 36.168C171.196 36.168 170.216 35.608 169.614 34.712V36H168.41V25.92H169.614V30.148C170.216 29.252 171.196 28.692 172.386 28.692ZM172.162 35.006C173.632 35.006 174.724 33.9 174.724 32.43C174.724 30.96 173.632 29.854 172.162 29.854C170.706 29.854 169.614 30.96 169.614 32.43C169.614 33.9 170.706 35.006 172.162 35.006ZM182.326 28.86H183.67L179.82 37.512C179.456 38.352 178.756 38.828 177.986 38.828C177.426 38.828 176.768 38.562 176.348 38.142L176.852 37.218C177.09 37.484 177.44 37.666 177.804 37.666C178.168 37.666 178.49 37.484 178.714 37.022L179.232 35.958L176.124 28.86H177.51L179.918 34.558L182.326 28.86Z" fill="#98A2B3"/>
<path d="M128.76 56.24C127.88 56.24 127.12 56.06 126.52 55.8V53.16C127.06 53.4 127.76 53.58 128.46 53.58C129.88 53.58 130.74 52.82 130.74 51.48V42.2H133.5V51.62C133.5 54.52 131.6 56.24 128.76 56.24ZM143.293 45.8H145.893V56H143.293V54.78C142.473 55.68 141.333 56.24 139.973 56.24C137.133 56.24 134.993 53.94 134.993 50.9C134.993 47.86 137.133 45.56 139.973 45.56C141.333 45.56 142.473 46.12 143.293 47.02V45.8ZM140.473 53.72C142.093 53.72 143.293 52.5 143.293 50.9C143.293 49.3 142.093 48.08 140.473 48.08C138.873 48.08 137.673 49.3 137.673 50.9C137.673 52.5 138.873 53.72 140.473 53.72ZM155.186 45.8H158.086L153.046 57.78C152.486 59.18 151.286 60.04 149.946 60.04C149.026 60.04 147.946 59.64 147.266 59.02L148.266 56.98C148.586 57.32 149.066 57.52 149.506 57.52C149.986 57.52 150.406 57.3 150.666 56.72L151.086 55.84L146.926 45.8H149.886L152.546 52.74L155.186 45.8ZM168.707 50.92C168.707 51.2 168.687 51.56 168.647 51.84H160.747C161.107 53.12 162.187 53.94 163.667 53.94C164.907 53.94 165.927 53.36 166.467 52.68L168.207 54.2C167.147 55.46 165.507 56.24 163.587 56.24C160.347 56.24 157.927 53.92 157.927 50.86C157.927 47.84 160.267 45.56 163.347 45.56C166.407 45.56 168.707 47.84 168.707 50.92ZM163.327 47.84C162.047 47.84 161.047 48.68 160.727 49.94H165.927C165.607 48.66 164.587 47.84 163.327 47.84ZM173.74 56.24C171.84 56.24 170.42 55.52 169.44 54.68L170.7 52.96C171.48 53.64 172.46 54.1 173.68 54.1C174.72 54.1 175.48 53.76 175.48 53.14C175.48 52.46 174.6 52.22 173.48 51.96C171.86 51.6 169.76 51.1 169.76 48.78C169.76 46.62 171.66 45.56 173.92 45.56C175.66 45.56 176.96 46.18 177.88 46.9L176.62 48.64C175.88 48.08 175.02 47.7 173.98 47.7C173.1 47.7 172.38 47.98 172.38 48.58C172.38 49.26 173.24 49.48 174.38 49.72C176 50.08 178.1 50.58 178.1 52.9C178.1 55.06 176.18 56.24 173.74 56.24ZM185.389 45.56C187.789 45.56 189.369 47.12 189.369 49.52V56H186.769V50.36C186.769 48.98 185.889 48.08 184.549 48.08C183.109 48.08 182.149 49 182.149 50.4V56H179.549V41.6H182.149V47C182.949 46.06 184.069 45.56 185.389 45.56ZM201.828 42.2C204.508 42.2 206.568 44.18 206.568 46.8C206.568 49.42 204.508 51.4 201.828 51.4H198.568V56H195.808V42.2H201.828ZM201.768 48.8C202.888 48.8 203.728 47.94 203.728 46.8C203.728 45.66 202.888 44.8 201.768 44.8H198.568V48.8H201.768ZM215.255 45.8H217.855V56H215.255V54.78C214.435 55.68 213.295 56.24 211.935 56.24C209.095 56.24 206.955 53.94 206.955 50.9C206.955 47.86 209.095 45.56 211.935 45.56C213.295 45.56 214.435 46.12 215.255 47.02V45.8ZM212.435 53.72C214.055 53.72 215.255 52.5 215.255 50.9C215.255 49.3 214.055 48.08 212.435 48.08C210.835 48.08 209.635 49.3 209.635 50.9C209.635 52.5 210.835 53.72 212.435 53.72ZM226.308 48.18H223.568V52.42C223.568 53.28 224.048 53.72 224.968 53.72C225.488 53.72 225.928 53.56 226.308 53.38V55.8C225.748 56.1 225.168 56.24 224.408 56.24C222.068 56.24 220.968 54.88 220.968 52.84V48.18H219.348V45.8H220.968V43.22H223.568V45.8H226.308V48.18ZM229.231 44.3C228.311 44.3 227.591 43.6 227.591 42.68C227.591 41.76 228.311 41.06 229.231 41.06C230.151 41.06 230.871 41.76 230.871 42.68C230.871 43.6 230.151 44.3 229.231 44.3ZM227.931 56V45.8H230.531V56H227.931ZM232.71 56V41.6H235.31V56H232.71Z" fill="white"/>
</svg>
